<svg width="40" height="53" viewBox="0 0 40 53" fill="none" xmlns="http://www.w3.org/2000/svg">
<path d="M9.94004 3.78645C11.1226 -0.289688 1.21145 -1.76644 1.99993 12.5C1.99993 12.5 2.28832 25.8124 1.49991 30.5C0.711509 35.1876 0.467196 40.1165 2.82315 45.5C3.91721 48 6.5 49 6.5 49C9.49998 50.5 23.4999 53 29.4999 53C29.4999 53 32.6639 53.2419 36.9999 51C41.3359 48.7581 37.3363 45.3629 36.3508 43.9362C35.3654 42.5096 38.4218 38.3967 38.716 37.2106C41 28 36.1537 22.9442 31.6206 20.091C31.6206 20.091 23.934 15.4034 15.4589 20.4986C6.98381 25.5938 8.99995 28.5 7.49995 29.5C5.99995 28.5 7.99993 17.8321 7.99993 13.773C9.1825 9.28923 11.8201 12.3462 11.8202 10.3083C11.8202 10.3083 11.6231 8.06639 8.66669 8.47397C6.85318 8.72398 9.94004 3.78645 9.94004 3.78645Z" fill="#EFBB01"/>
<ellipse cx="2.23965" cy="2.7875" rx="2.23965" ry="2.7875" transform="matrix(0.957534 0.288321 -0.279829 0.96005 16.5599 24)" fill="#8F6F00"/>
<path d="M31.049 30.4476C30.6182 31.9256 29.3088 32.8346 28.1244 32.478C26.94 32.1214 26.3291 30.6341 26.7599 29.1561C27.1907 27.6781 28.5001 26.7691 29.6845 27.1257C30.8689 27.4824 31.4798 28.9696 31.049 30.4476Z" fill="#8F6F00"/>
<path d="M31.049 30.4476C30.6182 31.9256 29.3088 32.8346 28.1244 32.478C26.94 32.1214 26.3291 30.6341 26.7599 29.1561C27.1907 27.6781 28.5001 26.7691 29.6845 27.1257C30.8689 27.4824 31.4798 28.9696 31.049 30.4476Z" fill="#8F6F00"/>
<path d="M20.6231 36.7311C26.9322 35.4889 28.0343 37.9193 28.0163 39.6222C27.1011 43.8078 19.9533 43.4789 19.9533 43.4789C19.9533 43.4789 11.409 42.7309 12.874 36.0684C15.3422 32.5956 19.2055 37.1422 20.6231 36.7311Z" fill="#8F6F00"/>
<path d="M20.6231 36.7311C26.9322 35.4889 28.0343 37.9193 28.0163 39.6222C27.1011 43.8078 19.9533 43.4789 19.9533 43.4789C19.9533 43.4789 11.409 42.7309 12.874 36.0684C15.3422 32.5956 19.2055 37.1422 20.6231 36.7311Z" fill="#8F6F00"/>
</svg>
