<svg width="52" height="43" viewBox="0 0 52 43" fill="none" xmlns="http://www.w3.org/2000/svg">
<path d="M32.2735 1.62973C28.0511 3.69985 26.2735 8.12971 26.2735 8.12971C26.2735 8.12971 24.2735 4.12972 20.2735 1.62973C16.1339 -0.957475 8.14268 -0.346572 4.27344 2.62976C-2.2265 7.62968 -0.981128 17.8947 5.77347 24.1298C12.2734 30.1298 25.7734 42.1298 25.7734 42.1298C25.7734 42.1298 38.7734 30.6298 45.7735 24.1298C52.013 18.336 54.7076 7.31797 47.2734 2.62976C42.6489 -0.286625 37.1826 -0.777058 32.2735 1.62973Z" fill="#EC2347"/>
<circle cx="14.5" cy="13.5" r="3.5" fill="#751E1E"/>
<path d="M41 13.5C41 15.433 39.433 17 37.5 17C35.567 17 34 15.433 34 13.5C34 11.567 35.567 10 37.5 10C39.433 10 41 11.567 41 13.5Z" fill="#751E1E"/>
<path d="M35 24.6088C28.9605 26.556 23.5362 26.5963 18 24C18 24 22.097 31.8162 25.3667 31.9949C29.5862 32.2255 35 24.6088 35 24.6088Z" fill="#751E1E"/>
</svg>
